<?xml version="1.0" encoding="UTF-8"?>
<svg id="Layer_1" xmlns="http://www.w3.org/2000/svg" version="1.1" viewBox="0 0 1025 1025">
  <!-- Generator: Adobe Illustrator 29.3.1, SVG Export Plug-In . SVG Version: 2.1.0 Build 151)  -->
  <path d="M907.5,186.7C758.4,3.2,492.2-52.7,281.9,55.3-10.9,203-91.2,585.4,117.5,838.4c209.7,254.1,601.8,246.5,801.9-14.8,144.1-187.4,139.5-454.8-11.9-636.8h0ZM907.1,458.7c14.5,104.8-14.6,212.5-78.3,295.9-23.8,31.1-71.1,29.5-92.5-3.2l-114.2-175c-17.1-26.2-52.1-33.5-78.3-16.4l-.5.3c-26.2,17.1-33.5,52.1-16.4,78.3l62.5,95.8c17.1,26.2,9.7,61.2-16.4,78.3l-.5.3c-26.2,17.1-61.2,9.7-78.3-16.4l-124.7-191.1c-17.1-26.2-52.1-33.5-78.3-16.4l-.5.3c-26.2,17.1-33.5,52.1-16.4,78.3l12.6,19.4c40,61.3-49.1,123.4-92.8,64.7-102.2-137.2-111-334.9,2.6-481.8,23.8-30.8,70.8-28.8,92.1,3.8l114.1,174.8c17.1,26.2,52.1,33.5,78.3,16.4l.5-.3c26.2-17.1,33.5-52.1,16.4-78.3l-62.5-95.8c-17.1-26.2-9.7-61.2,16.4-78.3l.5-.3c26.2-17.1,61.2-9.7,78.3,16.4l124.7,191.1c17.1,26.2,52.1,33.5,78.3,16.4l.5-.3c26.2-17.1,33.5-52.1,16.4-78.3l-9.7-14.8c-40-61.3,49.4-123.7,92.8-64.7,38.8,52.7,64.8,114.9,73.2,180.9h0Z"/>
</svg>