<?xml version="1.0" encoding="UTF-8"?>
<svg id="Ebene_2" xmlns="http://www.w3.org/2000/svg" version="1.1" viewBox="0 0 1024 1024">
  <!-- Generator: Adobe Illustrator 29.3.1, SVG Export Plug-In . SVG Version: 2.1.0 Build 151)  -->
  <path d="M1024,512c0,44.5-5.7,87.6-16.3,128.8-11.7,45.1-29.4,87.8-52.2,127.2-17.1,29.5-37,57.2-59.5,82.7-14.4,16.3-29.9,31.8-46.2,46.1-25,22-52.1,41.5-81,58.3-39.2,22.8-81.8,40.5-126.7,52.3-10.5,2.8-21.2,5.2-32,7.3-31.7,6.2-64.5,9.4-98,9.4s-64.9-3.1-96-9c-10.8-2-21.5-4.4-32-7.1v-495.9h224l-.3-85-.2-43h-223.5c-70.1,0-127.1,56.4-128,126.4,0,.5,0,1.1,0,1.6l.2,128.8.2,127.2.2,128.8v59.1c-29.4-17-57-36.8-82.4-59.1-15.9-13.9-30.8-28.8-44.9-44.6-23-25.9-43.4-54.1-60.9-84.2-22.8-39.4-40.5-82.1-52.2-127.2C5.7,599.6,0,556.5,0,512s5.6-87.1,16.1-128c11.7-45.4,29.5-88.4,52.4-128,16.7-28.9,36.2-56.1,58.1-81.1,14.5-16.6,30.1-32.3,46.7-46.9,25.2-22.3,52.7-42.1,81.9-59.1,39.8-23.1,83-41,128.7-52.8,10.5-2.7,21.2-5.1,32-7.1C447.1,3.1,479.2,0,512,0s63.5,3,94,8.6c10.8,2,21.5,4.3,32,7,45.9,11.6,89.3,29.4,129.3,52.5,29.8,17.2,57.7,37.3,83.4,59.9,16,14.2,31.2,29.3,45.3,45.3,22.5,25.4,42.4,53.1,59.5,82.7h-187.9c-41.7.1-78.7,20.2-102,51.2-16.1,21.4-25.6,48-25.6,76.8h-.5l.5,126.4c0,.5,0,1.1,0,1.6,0,32.3-12,61.8-31.7,84.3-23.5,26.8-57.9,43.7-96.3,43.7v.8h-96v127.2h96c34.3,0,67-6.8,97-19,11-4.5,21.7-9.8,31.9-15.8,38.2-22.3,70.1-54.2,92.4-92.4,22.1-37.8,34.7-81.8,34.7-128.8l-.2-128h240.1c10.5,40.9,16.1,83.8,16.1,128h0Z"/>
</svg>