<?xml version="1.0" encoding="UTF-8"?>
<svg id="Ebene_2" data-name="Ebene 2" xmlns="http://www.w3.org/2000/svg" viewBox="0 0 1024 1024">
  <defs>
    <style>
      .cls-1 {
        fill: #fff;
      }
    </style>
  </defs>
  <path class="cls-1" d="M1024,512c0,44.48-5.67,87.63-16.33,128.78-11.69,45.12-29.38,87.83-52.17,127.22-17.09,29.55-37.05,57.23-59.5,82.66-14.41,16.34-29.86,31.75-46.23,46.12-24.98,21.96-52.12,41.51-81.05,58.3-39.23,22.79-81.77,40.51-126.72,52.27-10.54,2.76-21.2,5.19-31.99,7.28-31.72,6.15-64.49,9.37-98.01,9.37s-64.91-3.09-96-8.99c-10.79-2.04-21.46-4.43-32-7.14v-495.87h224l-.34-85.04-.17-42.96h-223.49c-70.14,0-127.1,56.42-127.99,126.35-.01.55-.01,1.1-.01,1.65l.21,128.78.21,127.22.2,128.78.1,59.14c-29.48-16.98-57.1-36.82-82.49-59.14-15.85-13.92-30.83-28.8-44.85-44.56-23.02-25.86-43.44-54.07-60.88-84.22-22.79-39.39-40.48-82.1-52.17-127.22C5.67,599.63,0,556.48,0,512s5.6-87.09,16.13-128c11.69-45.41,29.45-88.39,52.37-128,16.74-28.95,36.24-56.11,58.14-81.11,14.54-16.62,30.14-32.28,46.7-46.89,25.23-22.27,52.66-42.09,81.94-59.08,39.82-23.13,83.04-41.03,128.72-52.79,10.54-2.71,21.21-5.1,32-7.14,31.09-5.9,63.19-8.99,96-8.99s63.51,2.96,93.98,8.61c10.79,2,21.47,4.34,32.01,7.01,45.88,11.61,89.29,29.41,129.29,52.46,29.82,17.18,57.74,37.28,83.38,59.92,16.04,14.15,31.19,29.3,45.34,45.34,22.45,25.43,42.41,53.11,59.5,82.66h-187.91c-41.7.13-78.71,20.21-101.99,51.19-16.07,21.4-25.6,47.99-25.6,76.81h-.52l.51,126.35c.01.55.01,1.1.01,1.65,0,32.27-11.95,61.76-31.66,84.28-23.46,26.8-57.93,43.72-96.34,43.72v.78h-96v127.22h96c34.31,0,67.05-6.75,96.95-19,11.05-4.53,21.72-9.8,31.94-15.78,38.21-22.3,70.12-54.22,92.4-92.44,22.07-37.83,34.71-81.83,34.71-128.78l-.21-128h240.08c10.53,40.91,16.13,83.8,16.13,128Z"/>
</svg>